<?xml version="1.0" standalone="no"?>
<!DOCTYPE svg PUBLIC "-//W3C//DTD SVG 20010904//EN"
 "http://www.w3.org/TR/2001/REC-SVG-20010904/DTD/svg10.dtd">
<svg version="1.0" xmlns="http://www.w3.org/2000/svg"
 width="495.000000pt" height="80.000000pt" viewBox="0 0 495.000000 80.000000"
 preserveAspectRatio="xMidYMid meet">

<g transform="translate(0.000000,80.000000) scale(0.100000,-0.100000)"
fill="#000000" stroke="none">
<path d="M287 763 c-15 -15 -3 -25 78 -65 47 -23 85 -45 85 -48 0 -3 -38 -23
-85 -45 l-84 -40 0 -72 -1 -73 -100 0 c-93 0 -100 -1 -100 -20 0 -20 7 -20
620 -20 613 0 620 0 620 20 0 19 -7 20 -100 20 l-100 0 -2 173 c-3 145 -5 172
-18 172 -13 0 -15 -27 -18 -172 l-2 -173 -380 0 -380 0 0 60 0 60 90 45 90 45
101 -51 c72 -36 105 -47 112 -40 7 7 7 14 1 20 -8 9 -409 211 -417 211 -2 0
-7 -3 -10 -7z"/>
<path d="M1737 764 c-4 -4 -7 -83 -7 -176 l0 -168 -80 0 -79 0 -3 123 c-3 100
-6 122 -18 122 -13 0 -15 -24 -18 -142 l-3 -143 221 0 c213 0 220 1 220 20 0
19 -7 20 -100 20 l-100 0 -2 172 c-3 161 -9 194 -31 172z"/>
<path d="M2283 716 l-102 -51 0 -142 -1 -143 820 0 c813 0 820 0 820 20 0 20
-7 20 -300 20 l-300 0 -2 173 c-3 145 -5 172 -18 172 -13 0 -15 -27 -18 -172
l-2 -173 -80 0 -79 0 -3 123 c-3 100 -6 122 -18 122 -12 0 -15 -22 -18 -122
l-3 -123 -79 0 -80 0 -2 173 c-3 145 -5 172 -18 172 -13 0 -15 -27 -18 -172
l-2 -173 -180 0 -180 0 0 60 0 60 100 50 c55 28 100 54 100 60 0 10 -209 121
-225 118 -5 0 -56 -24 -112 -52z m192 -23 c41 -21 75 -40 75 -44 0 -3 -38 -23
-85 -45 l-84 -39 -1 -72 0 -73 -80 0 -80 0 0 110 0 110 88 44 c48 25 88 45 89
45 2 1 36 -16 78 -36z m332 -100 c-2 -21 -4 -4 -4 37 0 41 2 58 4 38 2 -21 2
-55 0 -75z m-597 -65 c0 -57 -3 -78 -10 -68 -15 24 -10 150 6 150 2 0 4 -37 4
-82z m597 -60 c-3 -8 -6 -5 -6 6 -1 11 2 17 5 13 3 -3 4 -12 1 -19z"/>
<path d="M4133 716 l-102 -51 0 -142 -1 -143 420 0 c413 0 420 0 420 20 0 19
-7 20 -100 20 l-100 0 0 60 0 60 100 50 c55 28 100 54 100 60 0 23 -26 17
-109 -25 l-90 -45 -3 93 c-2 74 -6 92 -18 92 -12 0 -16 -18 -18 -92 l-3 -93
-186 95 c-102 52 -191 94 -197 93 -6 0 -57 -24 -113 -52z m192 -23 c41 -21 75
-40 75 -43 0 -3 -38 -25 -85 -48 l-85 -42 0 -70 0 -70 -80 0 -80 0 0 110 0
110 88 44 c48 25 88 45 89 45 2 1 36 -16 78 -36z m215 -108 l90 -45 0 -60 0
-60 -180 0 -180 0 0 60 0 60 88 44 c48 25 88 45 90 45 1 1 43 -19 92 -44z"/>
<path d="M3387 663 c-4 -3 -7 -10 -7 -15 0 -12 219 -120 230 -113 22 14 5 27
-100 80 -120 60 -114 58 -123 48z"/>
<path d="M178 289 c-54 -27 -98 -53 -98 -59 0 -23 26 -17 109 25 l90 45 3 -93
c2 -74 6 -92 18 -92 12 0 16 20 18 113 3 111 2 112 -20 111 -13 0 -67 -22
-120 -50z"/>
<path d="M578 289 c-54 -27 -98 -53 -98 -59 0 -23 27 -17 120 30 l101 51 99
-52 100 -51 100 51 99 52 101 -51 c93 -47 120 -53 120 -30 0 13 -195 110 -220
110 -11 0 -61 -20 -110 -45 l-90 -45 -90 45 c-49 25 -100 45 -112 44 -13 0
-67 -22 -120 -50z"/>
<path d="M1531 278 l1 -63 108 -53 109 -54 110 54 c60 29 110 59 110 65 1 15
-190 113 -219 113 -11 0 -56 -18 -100 -40 l-80 -40 0 40 c0 33 -3 40 -20 40
-18 0 -20 -6 -19 -62z m199 -48 l0 -70 -65 32 c-36 18 -65 35 -65 38 0 5 79
47 128 69 1 0 2 -30 2 -69z m170 0 c0 -3 -29 -20 -65 -38 l-65 -32 0 70 0 70
65 -32 c36 -18 65 -35 65 -38z"/>
<path d="M2182 279 l3 -61 107 -55 107 -54 110 53 c60 29 110 59 110 65 1 15
-189 113 -219 113 -19 0 -20 -6 -20 -90 l0 -90 -80 40 -80 40 0 50 c0 44 -3
50 -20 50 -19 0 -21 -5 -18 -61z m25 4 c-3 -10 -5 -4 -5 12 0 17 2 24 5 18 2
-7 2 -21 0 -30z m343 -53 c0 -3 -29 -20 -65 -38 l-65 -32 0 70 0 70 65 -32
c36 -18 65 -35 65 -38z"/>
<path d="M2782 228 c2 -93 6 -113 18 -113 12 0 16 20 18 113 3 107 2 112 -18
112 -20 0 -21 -5 -18 -112z"/>
<path d="M2981 278 l0 -63 110 -53 109 -53 200 101 200 100 100 -50 c93 -47
120 -53 120 -30 0 13 -195 110 -220 110 -11 0 -61 -20 -110 -45 l-90 -45 -90
45 c-49 25 -99 45 -110 45 -11 0 -56 -18 -100 -40 l-80 -40 0 40 c0 33 -3 40
-20 40 -18 0 -20 -6 -19 -62z m294 -5 c41 -21 75 -40 75 -43 0 -3 -34 -22 -75
-43 l-75 -37 -75 37 c-41 21 -75 40 -75 43 0 4 133 76 147 79 2 1 36 -16 78
-36z"/>
<path d="M4032 278 c2 -48 7 -63 18 -63 11 0 16 15 18 63 3 57 1 62 -18 62
-19 0 -21 -5 -18 -62z"/>
<path d="M4232 228 c2 -93 6 -113 18 -113 12 0 16 20 18 113 3 107 2 112 -18
112 -20 0 -21 -5 -18 -112z"/>
<path d="M4632 228 c2 -93 6 -113 18 -113 12 0 16 20 18 113 3 107 2 112 -18
112 -20 0 -21 -5 -18 -112z"/>
</g>
</svg>
